<svg width="33" height="32" viewBox="0 0 33 32" fill="none" xmlns="http://www.w3.org/2000/svg">
<path d="M15.8333 30C24.8351 30 29.3333 23.9558 29.3333 16.5C29.3333 9.04416 24.8351 3 15.8333 3C6.83146 3 2.33325 9.04416 2.33325 16.5C2.33325 23.9558 6.83146 30 15.8333 30Z" fill="url(#paint0_radial_13_2420)"/>
<path d="M15.8333 30C24.8351 30 29.3333 23.9558 29.3333 16.5C29.3333 9.04416 24.8351 3 15.8333 3C6.83146 3 2.33325 9.04416 2.33325 16.5C2.33325 23.9558 6.83146 30 15.8333 30Z" fill="url(#paint1_radial_13_2420)"/>
<path d="M15.8333 30C24.8351 30 29.3333 23.9558 29.3333 16.5C29.3333 9.04416 24.8351 3 15.8333 3C6.83146 3 2.33325 9.04416 2.33325 16.5C2.33325 23.9558 6.83146 30 15.8333 30Z" fill="url(#paint2_radial_13_2420)"/>
<path d="M15.8333 30C24.8351 30 29.3333 23.9558 29.3333 16.5C29.3333 9.04416 24.8351 3 15.8333 3C6.83146 3 2.33325 9.04416 2.33325 16.5C2.33325 23.9558 6.83146 30 15.8333 30Z" fill="url(#paint3_radial_13_2420)" fill-opacity="0.6"/>
<path d="M15.8333 30C24.8351 30 29.3333 23.9558 29.3333 16.5C29.3333 9.04416 24.8351 3 15.8333 3C6.83146 3 2.33325 9.04416 2.33325 16.5C2.33325 23.9558 6.83146 30 15.8333 30Z" fill="url(#paint4_radial_13_2420)"/>
<path d="M15.8333 30C24.8351 30 29.3333 23.9558 29.3333 16.5C29.3333 9.04416 24.8351 3 15.8333 3C6.83146 3 2.33325 9.04416 2.33325 16.5C2.33325 23.9558 6.83146 30 15.8333 30Z" fill="url(#paint5_radial_13_2420)"/>
<path d="M15.8333 30C24.8351 30 29.3333 23.9558 29.3333 16.5C29.3333 9.04416 24.8351 3 15.8333 3C6.83146 3 2.33325 9.04416 2.33325 16.5C2.33325 23.9558 6.83146 30 15.8333 30Z" fill="url(#paint6_radial_13_2420)"/>
<path d="M15.8333 30C24.8351 30 29.3333 23.9558 29.3333 16.5C29.3333 9.04416 24.8351 3 15.8333 3C6.83146 3 2.33325 9.04416 2.33325 16.5C2.33325 23.9558 6.83146 30 15.8333 30Z" fill="url(#paint7_radial_13_2420)"/>
<path d="M7.83325 23C10.3185 23 12.3333 20.9853 12.3333 18.5C12.3333 16.0147 10.3185 14 7.83325 14C5.34797 14 3.33325 16.0147 3.33325 18.5C3.33325 20.9853 5.34797 23 7.83325 23Z" fill="url(#paint8_radial_13_2420)"/>
<path fill-rule="evenodd" clip-rule="evenodd" d="M14.3333 13.5C14.3333 15.433 12.7663 17 10.8333 17C8.90026 17 7.33325 15.433 7.33325 13.5C7.33325 11.567 8.90026 10 10.8333 10C12.7663 10 14.3333 11.567 14.3333 13.5ZM23.3333 13.5C23.3333 15.433 21.7663 17 19.8333 17C17.9003 17 16.3333 15.433 16.3333 13.5C16.3333 11.567 17.9003 10 19.8333 10C21.7663 10 23.3333 11.567 23.3333 13.5Z" fill="white"/>
<path fill-rule="evenodd" clip-rule="evenodd" d="M13.8333 13.5C13.8333 14.8807 12.714 16 11.3333 16C9.95254 16 8.83325 14.8807 8.83325 13.5C8.83325 12.1193 9.95254 11 11.3333 11C12.714 11 13.8333 12.1193 13.8333 13.5ZM21.8333 13.5C21.8333 14.8807 20.714 16 19.3333 16C17.9526 16 16.8333 14.8807 16.8333 13.5C16.8333 12.1193 17.9526 11 19.3333 11C20.714 11 21.8333 12.1193 21.8333 13.5Z" fill="#402A32"/>
<path fill-rule="evenodd" clip-rule="evenodd" d="M11.8333 7C12.1094 7 12.3333 7.22386 12.3333 7.5C12.3333 8.63568 11.9024 9.52418 11.228 10.1237C10.5627 10.7151 9.68979 11 8.83325 11C8.55711 11 8.33325 10.7761 8.33325 10.5C8.33325 10.2239 8.55711 10 8.83325 10C9.47671 10 10.1038 9.78495 10.5636 9.3763C11.0142 8.97582 11.3333 8.36432 11.3333 7.5C11.3333 7.22386 11.5572 7 11.8333 7Z" fill="#402A32"/>
<path fill-rule="evenodd" clip-rule="evenodd" d="M19.8333 7C19.5572 7 19.3333 7.22386 19.3333 7.5C19.3333 8.63568 19.7642 9.52418 20.4386 10.1237C21.1039 10.7151 21.9768 11 22.8333 11C23.1094 11 23.3333 10.7761 23.3333 10.5C23.3333 10.2239 23.1094 10 22.8333 10C22.1898 10 21.5627 9.78495 21.103 9.3763C20.6524 8.97582 20.3333 8.36432 20.3333 7.5C20.3333 7.22386 20.1094 7 19.8333 7Z" fill="#402A32"/>
<path fill-rule="evenodd" clip-rule="evenodd" d="M29.4866 17.6339C30.389 16.9969 30.6042 15.749 29.9672 14.8466C29.3302 13.9442 28.0823 13.7291 27.1799 14.366L18.6799 20.366C18.4352 20.5388 18.241 20.7565 18.1006 21H19.3332C20.4378 21 21.3332 21.8954 21.3332 23V23.3892L29.4866 17.6339Z" fill="url(#paint9_linear_13_2420)"/>
<path fill-rule="evenodd" clip-rule="evenodd" d="M28.91 16.817C29.3612 16.4985 29.4688 15.8745 29.1503 15.4233C28.8318 14.9721 28.2078 14.8646 27.7566 15.1831L19.5055 21.0073C20.2752 21.073 20.9204 21.5745 21.1935 22.2639L28.91 16.817Z" fill="url(#paint10_linear_13_2420)"/>
<path d="M9.33325 22.5C9.33325 22.5 11.3333 20 15.3333 20C19.3333 20 21.3333 22.5 21.3333 22.5" stroke="#402A32" stroke-width="2" stroke-linecap="round" stroke-linejoin="round"/>
<path fill-rule="evenodd" clip-rule="evenodd" d="M21.1761 18.604L21.9428 19.5623C22.1153 19.778 22.4299 19.8129 22.6456 19.6404C22.8612 19.4679 22.8962 19.1533 22.7237 18.9376L21.9945 18.0262L21.1761 18.604Z" fill="#212121"/>
<path fill-rule="evenodd" clip-rule="evenodd" d="M24.8251 16.0282L24.0081 16.6049L24.6764 17.5406C24.8369 17.7653 25.1491 17.8173 25.3739 17.6568C25.5986 17.4963 25.6506 17.1841 25.4901 16.9594L24.8251 16.0282Z" fill="#212121"/>
<path fill-rule="evenodd" clip-rule="evenodd" d="M26.6423 14.7454L27.4332 15.8C27.5989 16.0209 27.9123 16.0657 28.1332 15.9C28.3541 15.7343 28.3989 15.4209 28.2332 15.2L27.4772 14.192C27.3749 14.2406 27.2754 14.2985 27.1798 14.366L26.6423 14.7454Z" fill="#212121"/>
<defs>
<radialGradient id="paint0_radial_13_2420" cx="0" cy="0" r="1" gradientUnits="userSpaceOnUse" gradientTransform="translate(24.9958 9.75054) rotate(132.839) scale(36.1668)">
<stop stop-color="#FFF478"/>
<stop offset="0.474827" stop-color="#FFB02E"/>
<stop offset="1" stop-color="#F70A8D"/>
</radialGradient>
<radialGradient id="paint1_radial_13_2420" cx="0" cy="0" r="1" gradientUnits="userSpaceOnUse" gradientTransform="translate(24.9958 9.75054) rotate(131.878) scale(37.5607)">
<stop stop-color="#FFF478"/>
<stop offset="0.474827" stop-color="#FFB02E"/>
<stop offset="1" stop-color="#F70A8D"/>
</radialGradient>
<radialGradient id="paint2_radial_13_2420" cx="0" cy="0" r="1" gradientUnits="userSpaceOnUse" gradientTransform="translate(15.8344 13.1258) rotate(101.31) scale(17.2106 22.0435)">
<stop offset="0.787821" stop-color="#F59639" stop-opacity="0"/>
<stop offset="0.972509" stop-color="#FF7DCE"/>
</radialGradient>
<radialGradient id="paint3_radial_13_2420" cx="0" cy="0" r="1" gradientUnits="userSpaceOnUse" gradientTransform="translate(17.7631 14.5724) rotate(135) scale(39.5506)">
<stop offset="0.314853" stop-opacity="0"/>
<stop offset="1"/>
</radialGradient>
<radialGradient id="paint4_radial_13_2420" cx="0" cy="0" r="1" gradientUnits="userSpaceOnUse" gradientTransform="translate(15.8344 17.4654) rotate(77.692) scale(27.1439)">
<stop offset="0.507903" stop-color="#7D6133" stop-opacity="0"/>
<stop offset="1" stop-color="#715B32"/>
</radialGradient>
<radialGradient id="paint5_radial_13_2420" cx="0" cy="0" r="1" gradientUnits="userSpaceOnUse" gradientTransform="translate(16.3166 16.9833) rotate(55.7131) scale(12.8391 9.30641)">
<stop stop-color="#FFB849"/>
<stop offset="1" stop-color="#FFB847" stop-opacity="0"/>
</radialGradient>
<radialGradient id="paint6_radial_13_2420" cx="0" cy="0" r="1" gradientUnits="userSpaceOnUse" gradientTransform="translate(20.174 18.4298) rotate(9.86581) scale(11.2566)">
<stop stop-color="#FFA64B"/>
<stop offset="0.900412" stop-color="#FFAE46" stop-opacity="0"/>
</radialGradient>
<radialGradient id="paint7_radial_13_2420" cx="0" cy="0" r="1" gradientUnits="userSpaceOnUse" gradientTransform="translate(17.2809 15.5367) rotate(43.9708) scale(56.9485)">
<stop offset="0.185425" stop-opacity="0"/>
<stop offset="1" stop-opacity="0.4"/>
</radialGradient>
<radialGradient id="paint8_radial_13_2420" cx="0" cy="0" r="1" gradientUnits="userSpaceOnUse" gradientTransform="translate(7.8368 18.5008) scale(4.49645)">
<stop stop-color="#FA666E"/>
<stop offset="1" stop-color="#FF6DC6" stop-opacity="0"/>
</radialGradient>
<linearGradient id="paint9_linear_13_2420" x1="23.8333" y1="16.5" x2="26.3333" y2="20" gradientUnits="userSpaceOnUse">
<stop stop-color="#BCABBB"/>
<stop offset="0.301039" stop-color="#EFEAF4"/>
<stop offset="1" stop-color="#DDA8FF"/>
</linearGradient>
<linearGradient id="paint10_linear_13_2420" x1="22.8333" y1="16.5" x2="25.3333" y2="20.5" gradientUnits="userSpaceOnUse">
<stop offset="0.245799" stop-color="#F5243E"/>
<stop offset="0.936305" stop-color="#FF20C9"/>
</linearGradient>
</defs>
</svg>
